<svg width="386" height="333" viewBox="0 0 386 333" fill="none" xmlns="http://www.w3.org/2000/svg">
<g clip-path="url(#clip0)">
<path d="M361.188 103.317C360.451 46.2905 331.359 0.423126 295.574 0.423126C274.07 0.423126 254.981 16.9879 243.011 42.5843L257.084 77.8968L237.634 56.1312C232.728 70.8587 229.944 87.6729 229.944 105.531C229.904 119.067 231.571 132.554 234.905 145.673L272.622 139.592L238.867 158.467C249.864 188.616 269.964 209.206 293.131 210.565L288.666 332.03L302.483 332.524L299.53 210.443C332.52 207.301 358.946 165.137 361.063 112.37L338.265 99.6218L361.188 103.317Z" fill="#CCCCCC"/>
<path d="M108.428 126.565H106.62V140.054H108.428V126.565Z" fill="#E4E4E4"/>
<path d="M52.1806 93.1864H50.3726V106.676H52.1806V93.1864Z" fill="#E4E4E4"/>
<path d="M58.6715 99.1774L57.3472 100.411L51.2783 93.8805L45.208 100.411L43.8836 99.1774L51.2783 91.2258L58.6715 99.1774Z" fill="#E4E4E4"/>
<path d="M50.7758 113.456C47.915 113.456 45.1185 112.608 42.7398 111.018C40.3611 109.429 38.5072 107.17 37.4124 104.527C36.3176 101.884 36.0312 98.9756 36.5893 96.1698C37.1474 93.3639 38.525 90.7866 40.5479 88.7637C42.5708 86.7408 45.1481 85.3632 47.9539 84.8051C50.7598 84.247 53.6681 84.5334 56.3111 85.6282C58.9542 86.723 61.2132 88.5769 62.8026 90.9556C64.392 93.3343 65.2403 96.1309 65.2403 98.9917C65.236 102.827 63.7107 106.503 60.999 109.215C58.2873 111.927 54.6107 113.452 50.7758 113.456V113.456ZM50.7758 86.3353C48.2726 86.3353 45.8256 87.0776 43.7443 88.4683C41.663 89.859 40.0408 91.8356 39.0828 94.1483C38.1249 96.4609 37.8743 99.0057 38.3626 101.461C38.851 103.916 40.0564 106.171 41.8264 107.941C43.5964 109.711 45.8516 110.917 48.3067 111.405C50.7618 111.893 53.3066 111.643 55.6192 110.685C57.9319 109.727 59.9085 108.105 61.2992 106.023C62.6899 103.942 63.4322 101.495 63.4322 98.9917C63.4284 95.6362 62.0938 92.4192 59.7211 90.0464C57.3484 87.6737 54.1313 86.3391 50.7758 86.3353V86.3353Z" fill="#E4E4E4"/>
<path d="M152.808 259.068C152.404 258.652 152.094 258.155 151.897 257.609C151.7 257.064 151.621 256.483 151.666 255.905C151.711 255.327 151.879 254.765 152.158 254.257C152.437 253.748 152.821 253.305 153.284 252.957C153.482 252.802 153.691 252.663 153.91 252.542L150.436 237.572L158.516 240.474L160.576 254.244C161.061 255.105 161.216 256.113 161.014 257.081C160.811 258.048 160.265 258.909 159.476 259.504C158.504 260.26 157.288 260.633 156.059 260.553C154.83 260.472 153.674 259.944 152.808 259.068V259.068Z" fill="#FFB8B8"/>
<path d="M151.891 247.388L151.847 247.241C147.479 232.435 142.964 217.13 137.452 200.465L137.416 200.356L137.538 200.291C140.61 198.648 145.228 198.757 148.279 200.545C151.102 202.2 152.529 205.399 151.758 208.336L155.778 227.547C157.413 233.827 159.104 240.327 160.721 246.736L160.767 246.918L160.516 246.933C157.573 247.104 154.531 247.282 152.095 247.38L151.891 247.388Z" fill="#CCCCCC"/>
<path d="M114.77 327.074H109.041L106.315 306.822H114.77V327.074Z" fill="#FFB8B8"/>
<path d="M116.232 332.163H97.7586V331.949C97.7586 328.316 100.984 325.359 104.949 325.359H116.232V332.163Z" fill="#2F2E41"/>
<path d="M168.756 322.743L163.297 324.337L153.991 305.799L162.047 303.446L168.756 322.743Z" fill="#FFB8B8"/>
<path d="M154.233 332.325L154.163 332.121C152.959 328.659 155.053 324.945 158.831 323.842L169.581 320.702L171.835 327.185L154.233 332.325Z" fill="#2F2E41"/>
<path d="M139.759 186.897C146.098 186.897 151.237 182.188 151.237 176.379C151.237 170.569 146.098 165.86 139.759 165.86C133.42 165.86 128.281 170.569 128.281 176.379C128.281 182.188 133.42 186.897 139.759 186.897Z" fill="#FFB8B8"/>
<path d="M144.912 174.429C144.977 170.187 143.04 165.985 140.044 163.872C138.596 162.843 136.857 162.303 135.08 162.332C133.304 162.361 131.583 162.956 130.169 164.032C127.22 166.241 125.373 170.504 125.529 174.743C132.138 174.76 138.746 174.777 144.912 174.429Z" fill="#2F2E41"/>
<path d="M118.041 320.555L117.812 320.534C112.827 320.086 107.673 319.623 102.803 319.57L102.538 319.567L102.574 319.326C103.728 311.666 104.217 303.703 104.69 296.002C105.157 288.398 105.64 280.535 106.765 273.067C107.241 271.067 107.705 269.091 108.168 267.122C111.993 250.829 115.606 235.44 123.064 220.206L123.134 220.063L123.305 220.081C130.303 220.857 137.027 223.197 142.238 226.67L142.339 226.737L142.334 226.851C142.191 229.195 142.174 231.545 142.284 233.891C144.629 236.813 146.199 240.279 146.849 243.968C147.498 247.658 147.207 251.451 146.001 254.998C148.053 261.283 150.174 267.78 152.339 274.189C157.596 287.396 163.035 301.063 168.611 314.918L168.702 315.145L168.445 315.2C164.433 316.063 160.295 316.953 156.212 317.299L156.058 317.312L155.985 317.187C145.631 299.557 137.159 280.888 130.709 261.487C129.315 265.381 127.308 268.896 125.364 272.301C123.512 275.382 121.875 278.588 120.466 281.895C119.605 288.371 119.377 295.387 119.156 302.172C118.947 308.587 118.75 314.647 118.067 320.344L118.041 320.555Z" fill="#2F2E41"/>
<path d="M135.84 164.067C140.815 163.084 146.318 164.019 150.225 167.095C154.133 170.172 156.117 175.493 154.511 180.057C152.906 184.621 147.457 187.833 142.53 186.654C143.941 183.009 142.353 178.533 138.903 176.433C134.811 173.942 133.684 167.997 135.84 164.067Z" fill="#2F2E41"/>
<path d="M141.881 227.127L141.699 227.051C135.352 224.397 129.129 222.361 123.298 220.503L123.119 220.468L123.119 219.993L123.235 220.03C123.259 219.981 123.287 219.925 123.314 219.869C123.394 219.707 123.448 219.597 123.494 219.524L123.493 219.524C123.979 218.616 124.366 217.739 124.739 216.89C125.125 216.015 125.523 215.111 126.037 214.154C124.807 213.067 123.952 211.62 123.593 210.018C123.234 208.416 123.39 206.742 124.039 205.234C125.327 202.436 128.611 200.257 132.062 199.896C133.326 196.706 136.144 190.003 136.144 190.003C136.144 190.003 142.069 189.853 144.451 189.576L144.491 189.572L144.531 189.58C149.732 190.624 154.075 195.135 155.091 200.549C155.949 205.119 154.646 210.346 151.424 215.267C149.76 217.687 147.932 219.989 145.952 222.158C144.5 223.821 143.129 225.392 141.991 226.974L141.881 227.127Z" fill="#CCCCCC"/>
<path d="M153.369 170.3C149.886 169.824 147.152 166.561 147.548 163.355C147.943 160.148 151.404 157.528 154.915 157.776C158.426 158.025 161.406 161.102 161.259 164.326C161.113 167.55 157.815 170.908 153.369 170.3Z" fill="#2F2E41"/>
<path d="M152.825 168.221C149.342 167.745 146.608 164.482 147.004 161.275C147.275 159.082 148.98 157.164 151.155 156.25C148.346 156.813 145.929 159.056 145.602 161.704C145.206 164.91 147.941 168.173 151.423 168.649C152.717 168.836 154.037 168.667 155.242 168.16C154.445 168.313 153.629 168.333 152.825 168.221V168.221Z" fill="#2F2E41"/>
<path d="M85.2713 224.743C85.9549 223.724 86.9919 222.993 88.1822 222.693C89.3725 222.393 90.6318 222.545 91.717 223.118C91.9391 223.236 92.1516 223.371 92.3525 223.521L106.596 215.532L106.303 223.48L92.8223 229.849C92.061 230.565 91.0961 231.026 90.061 231.17C89.0259 231.314 87.9718 231.132 87.0443 230.651C86.5179 230.403 86.0496 230.047 85.6698 229.606C85.2901 229.165 85.0074 228.65 84.8401 228.092C84.6729 227.535 84.6248 226.949 84.6991 226.372C84.7734 225.795 84.9684 225.24 85.2713 224.743V224.743Z" fill="#FFB8B8"/>
<path d="M96.9819 220.059L97.1188 219.972C110.896 211.265 125.138 202.264 140.446 191.949L140.546 191.881L140.653 191.965C143.367 194.072 144.793 198.099 143.971 201.331C143.209 204.322 140.393 206.621 137.114 206.933L118.689 216.807C112.773 220.312 106.65 223.94 100.594 227.472L100.423 227.572L100.324 227.361C99.1669 224.874 97.9711 222.305 97.0585 220.233L96.9819 220.059Z" fill="#CCCCCC"/>
<path d="M384.925 333H1.43102C1.29927 333 1.17292 332.948 1.07976 332.855C0.986601 332.761 0.934265 332.635 0.934265 332.503C0.934265 332.372 0.986601 332.245 1.07976 332.152C1.17292 332.059 1.29927 332.007 1.43102 332.007H384.925C385.057 332.007 385.183 332.059 385.276 332.152C385.37 332.245 385.422 332.372 385.422 332.503C385.422 332.635 385.37 332.761 385.276 332.855C385.183 332.948 385.057 333 384.925 333Z" fill="#2F2E41"/>
<path d="M70.5001 211C62.4899 211 54.6597 208.654 47.9995 204.259C41.3393 199.864 36.1483 193.616 33.0829 186.307C30.0176 178.998 29.2155 170.956 30.7782 163.196C32.3409 155.437 36.1982 148.31 41.8622 142.716C47.5262 137.122 54.7426 133.312 62.5988 131.769C70.4551 130.225 78.5983 131.017 85.9987 134.045C93.3991 137.072 99.7243 142.199 104.174 148.777C108.625 155.355 111 163.089 111 171V171C110.988 181.605 106.717 191.772 99.1244 199.271C91.5318 206.77 81.2376 210.988 70.5001 211V211Z" fill="#63F9FF"/>
<path d="M50.0726 174.34L47.6739 172.128C46.6582 171.192 46.6582 169.678 47.6739 168.751L68.6685 149.386C69.6842 148.45 71.3266 148.45 72.3315 149.386L93.3261 168.741C94.3418 169.678 94.3418 171.192 93.3261 172.118L90.9274 174.33C89.9009 175.276 88.2261 175.256 87.2212 174.29L74.8275 162.296V190.925C74.8275 192.25 73.6713 193.316 72.2342 193.316H68.7766C67.3395 193.316 66.1833 192.25 66.1833 190.925V162.296L53.7788 174.3C52.7739 175.276 51.0991 175.296 50.0726 174.34V174.34Z" fill="#FFF4F4"/>
</g>
<defs>
<clipPath id="clip0">
<rect width="384.488" height="332.577" fill="white" transform="translate(0.934265 0.423126)"/>
</clipPath>
</defs>
</svg>
